<svg id="Capa_1" enable-background="new 0 0 497 497" height="512" viewBox="0 0 497 497" width="512" xmlns="http://www.w3.org/2000/svg"><g><path d="m28.764 5.235c-9.056 2.448-15.311 10.757-15.013 20.133.981 30.764 12.238 98.439 90.065 119.323l48.027-107.652c.001-.001-42.223-53.662-123.079-31.804z" fill="#e7886e"/><path d="m74.216 133.026c8.605 4.688 18.411 8.662 29.601 11.665l48.027-107.652s-7.784-9.883-23.054-19.439c-31.172 29.378-51.568 70.06-54.574 115.426z" fill="#e27858"/><path d="m98.956 42.406c-10.1-4.325-20.953-6.487-32.479-6.487-.051 0-.102 0-.153 0-8.586.014-14.727 8.34-12.407 16.606.511 1.819 1.079 3.658 1.713 5.506 9.281 27.076 28.089 44.075 57.497 51.966l20.752-43.564c-.001.001-18.752-17.102-34.923-24.027z" fill="#e8e8e8"/><path d="m468.236 5.235c9.056 2.448 15.311 10.757 15.013 20.133-.981 30.764-12.238 98.439-90.065 119.323l-48.028-107.653s42.224-53.661 123.08-31.803z" fill="#e7886e"/><path d="m422.784 133.025c-3.006-45.365-23.402-86.048-54.574-115.426-15.27 9.556-23.054 19.439-23.054 19.439l48.027 107.652c11.19-3.002 20.997-6.976 29.601-11.665z" fill="#e27858"/><path d="m398.044 42.406c10.1-4.325 20.953-6.487 32.479-6.487h.153c8.586.014 14.727 8.34 12.407 16.606-.511 1.819-1.079 3.658-1.713 5.506-9.281 27.076-28.089 44.075-57.497 51.966l-20.752-43.564c.001.001 18.752-17.102 34.923-24.027z" fill="#e8e8e8"/><path d="m378.513 320.443h-260.026s-61.005 89.035-35.694 176.557h85.243l80.464-17.731 80.464 17.731h85.243c25.311-87.522-35.694-176.557-35.694-176.557z" fill="#e7886e"/><path d="m363.122 66.434 20.752 43.564c12.594-3.379 23.238-8.435 32.029-15.231-5.329-17.836-13.434-34.482-23.816-49.439-14.486 7.902-28.965 21.106-28.965 21.106z" fill="#dadad8"/><path d="m81.098 94.767c8.79 6.796 19.434 11.852 32.029 15.231l20.752-43.564s-14.48-13.205-28.964-21.107c-10.383 14.957-18.488 31.604-23.817 49.44z" fill="#dadad8"/><path d="m248.5.007c-79.906 0-144.683 64.777-144.683 144.683s64.777 177.486 144.683 177.486 144.683-97.579 144.683-177.485-64.777-144.684-144.683-144.684z" fill="#e7886e"/><g fill="#ffa9a0"><ellipse cx="160.831" cy="155.068" rx="25.76" ry="32.348" transform="matrix(.002 -1 1 .002 5.412 315.559)"/><ellipse cx="336.168" cy="155.451" rx="25.76" ry="32.348" transform="matrix(.002 -1 1 .002 179.982 491.279)"/></g><path d="m88.849 229.539c-6.58 1.779-11.125 7.815-10.907 14.628.713 22.352 8.892 71.521 65.438 86.695l34.894-78.216s-30.678-38.988-89.425-23.107z" fill="#f3bdae"/><path d="m408.151 229.539c6.58 1.779 11.125 7.815 10.908 14.628-.713 22.352-8.892 71.521-65.438 86.695l-34.895-78.216s30.678-38.988 89.425-23.107z" fill="#f3bdae"/><g fill="#f0ac99"><path d="m328.964 497c0-34.134-28.835-56.585-28.835-56.585h-103.258s-28.835 22.451-28.835 56.585z"/><path d="m382.964 317.543c-3.19-32.452-17.911-61.566-39.997-83.189-16.039 7.872-24.241 18.293-24.241 18.293l34.894 78.216c11.75-3.154 21.404-7.778 29.344-13.32z"/><path d="m114.036 317.543c7.94 5.543 17.595 10.166 29.344 13.319l34.895-78.216s-8.202-10.421-24.241-18.293c-22.087 21.624-36.808 50.737-39.998 83.19z"/></g><path d="m248.5 225.741c-58.056 0-105.121 47.064-105.121 105.121s47.065 128.953 105.121 128.953 105.121-70.897 105.121-128.953-47.065-105.121-105.121-105.121z" fill="#f3bdae"/><path d="m278.269 144.846c0 8.579-13.328 18.989-29.769 18.989s-29.769-10.411-29.769-18.989 59.538-8.578 59.538 0z" fill="#423e4f"/><path d="m270.129 368.484c0 6.233-9.684 13.797-21.629 13.797s-21.629-7.564-21.629-13.797 43.258-6.233 43.258 0z" fill="#423e4f"/><g fill="#423e4f"><path d="m187.495 119.448c0-4.142-3.358-7.5-7.5-7.5s-7.5 3.358-7.5 7.5v16.432c0 4.142 3.358 7.5 7.5 7.5s7.5-3.358 7.5-7.5z"/><path d="m316.816 111.948c-4.143 0-7.5 3.358-7.5 7.5v16.432c0 4.142 3.357 7.5 7.5 7.5s7.5-3.358 7.5-7.5v-16.432c0-4.142-3.357-7.5-7.5-7.5z"/><path d="m194.22 339.436c-4.143 0-7.5 3.358-7.5 7.5v13.015c0 4.142 3.357 7.5 7.5 7.5s7.5-3.358 7.5-7.5v-13.015c0-4.142-3.357-7.5-7.5-7.5z"/><path d="m302.59 339.436c-4.143 0-7.5 3.358-7.5 7.5v13.015c0 4.142 3.357 7.5 7.5 7.5s7.5-3.358 7.5-7.5v-13.015c0-4.142-3.357-7.5-7.5-7.5z"/><path d="m278.269 178.713c-4.143 0-7.5 3.358-7.5 7.5 0 4.044-3.291 7.335-7.336 7.335s-7.335-3.291-7.335-7.335c0-4.142-3.357-7.5-7.5-7.5s-7.5 3.358-7.5 7.5c0 4.044-3.29 7.335-7.335 7.335s-7.336-3.291-7.336-7.335c0-4.142-3.357-7.5-7.5-7.5s-7.5 3.358-7.5 7.5c0 12.315 10.02 22.335 22.336 22.335 5.69 0 10.887-2.142 14.835-5.658 3.948 3.516 9.145 5.658 14.835 5.658 12.316 0 22.336-10.02 22.336-22.335 0-4.142-3.357-7.5-7.5-7.5z"/><path d="m275.255 386.405c-4.143 0-7.5 3.358-7.5 7.5 0 3.241-2.637 5.878-5.878 5.878s-5.877-2.636-5.877-5.878c0-4.142-3.357-7.5-7.5-7.5s-7.5 3.358-7.5 7.5c0 3.241-2.637 5.878-5.878 5.878-3.24 0-5.877-2.637-5.877-5.878 0-4.142-3.357-7.5-7.5-7.5s-7.5 3.358-7.5 7.5c0 11.512 9.365 20.878 20.877 20.878 5.088 0 9.752-1.834 13.378-4.869 3.626 3.035 8.29 4.869 13.378 4.869 11.512 0 20.878-9.366 20.878-20.878-.001-4.142-3.358-7.5-7.501-7.5z"/></g></g></svg>