<svg id="Capa_1" enable-background="new 0 0 512 512" height="512" viewBox="0 0 512 512" width="512" xmlns="http://www.w3.org/2000/svg"><path d="m278.075 105.509c5.977-17.646 14.683-32.919 22.799-44.695 8.994-13.052 2.283-31.081-13.026-35.191-8.611-2.311-17.764.574-23.538 7.367-16.551 19.471-24.349 51.074-27.885 72.195" fill="#82d361"/><path d="m329.828 122.005c-19.922-10.135-44.774-18.041-73.828-18.041s-53.906 7.906-73.828 18.041-182.172-.855-182.172 173.559 182.172 173.559 182.172 173.559c19.922 10.135 44.774 18.041 73.828 18.041s53.906-7.906 73.828-18.041 182.172.855 182.172-173.559-182.172-173.559-182.172-173.559z" fill="#ff9838"/><path d="m278.075 105.509c2.796-8.256 6.194-15.984 9.845-23.086-9.98-2.055-20.628-3.261-31.921-3.261-4.789 0-9.453.234-14.01.638-2.521 9.106-4.312 17.903-5.565 25.384 6.293-.784 12.818-1.22 19.575-1.22 7.656.001 15.018.551 22.076 1.545z" fill="#6acb44"/><path d="m375.737 436.097c-19.922 10.135-90.683 18.041-119.737 18.041s-99.814-7.906-119.737-18.041c0 0-129.157 10.1-136-151.743-.17 3.656-.263 7.388-.263 11.21 0 174.414 182.172 173.559 182.172 173.559 19.922 10.135 44.774 18.041 73.828 18.041s53.906-7.906 73.828-18.041 182.172.855 182.172-173.559c0-3.822-.092-7.554-.264-11.21-6.843 161.844-135.999 151.743-135.999 151.743z" fill="#ff8709"/><path d="m181.078 292.827-74.796 5.326c-3.166.225-5.752-2.516-5.31-5.66 1.948-13.855 10.145-46.613 44.14-47.022 30.547-.367 38.541 29.168 40.551 41.589.467 2.894-1.661 5.559-4.585 5.767z" fill="#87523e"/><path d="m330.922 292.827 74.796 5.326c3.166.225 5.752-2.516 5.31-5.66-1.948-13.855-10.145-46.613-44.14-47.022-30.547-.367-38.541 29.168-40.551 41.589-.467 2.894 1.661 5.559 4.585 5.767z" fill="#87523e"/><path d="m103.789 279.75c-1.495 4.868-2.34 9.358-2.815 12.73-.444 3.15 2.136 5.899 5.309 5.673l74.794-5.326c2.922-.208 5.053-2.871 4.585-5.763-.544-3.361-1.526-7.975-3.274-12.911z" fill="#7c4b37"/><path d="m329.612 274.153c-1.748 4.936-2.73 9.551-3.274 12.911-.468 2.891 1.663 5.554 4.585 5.763l74.794 5.326c3.173.226 5.753-2.523 5.309-5.673-.475-3.372-1.32-7.861-2.815-12.73z" fill="#7c4b37"/><path d="m314.235 323.785c.161-2.855-2.134-5.25-4.994-5.25h-53.241-53.241c-2.878 0-5.156 2.418-4.993 5.292.781 13.708 7.676 49.309 58.234 49.309v-17.039c0-7.775 6.303-14.078 14.078-14.078h5.326c7.775 0 14.078 6.303 14.078 14.078v9.672c20.536-11.19 24.202-32.207 24.753-41.984z" fill="#87523e"/><path d="m314.235 323.785c.11-1.94-.917-3.665-2.482-4.573-2.935 9.677-9.152 20.829-22.27 27.978v-9.672c0-7.775-6.303-14.078-14.078-14.078h-5.326c-7.775 0-14.078 6.303-14.078 14.078v17.039c-37.534 0-50.996-19.618-55.764-35.336-1.564.917-2.581 2.656-2.47 4.608.781 13.708 7.676 49.309 58.234 49.309v-17.039c0-7.775 6.303-14.078 14.078-14.078h5.326c7.775 0 14.078 6.303 14.078 14.078v9.672c20.535-11.192 24.201-32.209 24.752-41.986z" fill="#7c4b37"/><g fill="#f70"><path d="m329.828 122.005c-.03-.015-.063-.03-.093-.046 4.315 3.337 8.582 6.979 12.798 10.925 20.442 19.133 31.925 38.607 32.169 39.025 1.384 2.39 3.915 3.73 6.521 3.73 1.26 0 2.538-.314 3.711-.974 3.598-2.024 4.85-6.539 2.796-10.086-.487-.841-11.883-20.328-32.834-40.484-15.174-2.135-25.068-2.09-25.068-2.09z"/><path d="m182.172 122.005s-9.893-.046-25.066 2.09c-20.951 20.156-32.347 39.643-32.834 40.484-2.054 3.546-.802 8.062 2.796 10.086 3.597 2.023 8.178.79 10.231-2.756.111-.193 11.396-19.498 31.869-38.743 4.315-4.057 8.685-7.792 13.105-11.21-.033.016-.068.032-.101.049z"/><path d="m169.566 457.827c-20.582-20.192-32.091-40.747-32.201-40.947-1.986-3.597-6.545-4.918-10.179-2.952-3.635 1.966-4.97 6.475-2.983 10.071.492.89 12.14 21.758 33.553 43.125 14.803 2.043 24.416 2 24.416 2 .003.001.005.002.008.004-4.252-3.459-8.458-7.224-12.614-11.301z"/><path d="m384.817 413.933c-3.633-1.966-8.187-.65-10.18 2.941-.113.205-11.622 20.761-32.205 40.952-4.156 4.078-8.362 7.843-12.614 11.301.003-.002.007-.003.01-.005s9.612.043 24.415-2c21.413-21.367 33.061-42.234 33.553-43.124 1.986-3.594.652-8.098-2.979-10.065z"/></g></svg>